<?xml version="1.0" encoding="UTF-8" standalone="no"?>
<!-- Created with Inkscape (http://www.inkscape.org/) -->

<svg
   xmlns:dc="http://purl.org/dc/elements/1.1/"
   xmlns:cc="http://creativecommons.org/ns#"
   xmlns:rdf="http://www.w3.org/1999/02/22-rdf-syntax-ns#"
   xmlns:svg="http://www.w3.org/2000/svg"
   xmlns="http://www.w3.org/2000/svg"
   xmlns:sodipodi="http://sodipodi.sourceforge.net/DTD/sodipodi-0.dtd"
   xmlns:inkscape="http://www.inkscape.org/namespaces/inkscape"
   width="640"
   height="480"
   id="svg2"
   version="1.1"
   inkscape:version="0.47+devel r"
   sodipodi:docname="logo.svg">
  <defs
     id="defs4">
    <filter
       inkscape:collect="always"
       id="filter3796"
       x="-0.58157947"
       width="2.1631589"
       y="-2.5163388"
       height="6.0326776">
      <feGaussianBlur
         inkscape:collect="always"
         stdDeviation="93.266139"
         id="feGaussianBlur3798" />
    </filter>
  </defs>
  <sodipodi:namedview
     id="base"
     pagecolor="#ffffff"
     bordercolor="#666666"
     borderopacity="1.0"
     inkscape:pageopacity="0.0"
     inkscape:pageshadow="2"
     inkscape:zoom="0.80286082"
     inkscape:cx="320"
     inkscape:cy="264.68115"
     inkscape:document-units="px"
     inkscape:current-layer="layer1"
     showgrid="false"
     borderlayer="true"
     inkscape:window-width="1280"
     inkscape:window-height="737"
     inkscape:window-x="-4"
     inkscape:window-y="-3"
     inkscape:window-maximized="1" />
  <metadata
     id="metadata7">
    <rdf:RDF>
      <cc:Work
         rdf:about="">
        <dc:format>image/svg+xml</dc:format>
        <dc:type
           rdf:resource="http://purl.org/dc/dcmitype/StillImage" />
        <dc:title />
      </cc:Work>
    </rdf:RDF>
  </metadata>
  <g
     inkscape:label="Layer 1"
     inkscape:groupmode="layer"
     id="layer1"
     transform="translate(0,-572.36218)">
    <path
       sodipodi:type="arc"
       style="fill:#ffffff;fill-opacity:1;stroke:#ffffff;stroke-width:12.60000038;stroke-miterlimit:4;stroke-opacity:1;stroke-dasharray:none;filter:url(#filter3796)"
       id="path3014"
       sodipodi:cx="294.6055"
       sodipodi:cy="406.45871"
       sodipodi:rx="192.44037"
       sodipodi:ry="44.477066"
       d="m 487.04587,406.45871 c 0,24.56401 -86.15849,44.47707 -192.44037,44.47707 -106.28188,0 -192.44037,-19.91306 -192.44037,-44.47707 0,-24.56401 86.15849,-44.47707 192.44037,-44.47707 106.28188,0 192.44037,19.91306 192.44037,44.47707 z"
       transform="matrix(0.75413342,0,0,0.72255362,98.41425,517.2773)" />
    <text
       xml:space="preserve"
       style="font-size:190.26551819px;font-style:normal;font-weight:normal;fill:#ffffff;fill-opacity:1;stroke:none;font-family:Dustismo;-inkscape-font-specification:Dustismo"
       x="208.07469"
       y="853.85168"
       id="text3008"><tspan
         sodipodi:role="line"
         id="tspan3010"
         x="208.07469"
         y="853.85168"
         style="letter-spacing:-4.81315279"
         dx="0 -5.775784 0 -6.7384148 -6.7384148">sidux</tspan></text>
    <path
       style="color:#000000;fill:#ffffff;fill-opacity:1;stroke:none;stroke-width:7;marker:none;visibility:visible;display:inline;overflow:visible;enable-background:accumulate"
       d="M 98.558674,694.00795 C 86.776918,694.2185 75.884995,708.29236 75.884995,708.29236 57.928279,693.47286 58.040858,728.17713 58.040858,728.17713 41.33603,735.8867 45.661007,763.2306 45.661007,763.2306 l 5.21496,1.15635 c -4.186839,8.20152 -6.552671,17.45944 -6.552671,27.25375 0,2.89156 0.214553,5.7179 0.612163,8.5026 -8.835451,1.49674 -25.83885,5.41962 -22.900333,13.06002 l -1.564502,3.15164 c 0,0 -7.88019,3.15252 -6.303241,8.27586 0.945668,3.07231 8.528495,9.23191 14.465747,13.69491 -2.165186,0.85476 -9.015679,3.9491 -7.323609,8.59325 2.001373,5.48979 27.503187,20.27029 27.503187,20.27029 L 36.319519,848.18873 c 0,0 22.405488,-2.63968 30.291993,-9.81766 0.998132,0.82023 2.011208,1.62262 3.060942,2.3807 -4.340828,2.06413 -7.1994,4.78963 -5.849864,8.29855 l -1.587083,3.15165 c 0,0 -7.88019,3.15256 -6.303344,8.2759 1.576995,5.12328 21.676156,18.90983 21.676006,18.90983 l -9.862997,-17.73085 c 0,0 11.14248,-1.54232 18.841763,-5.53236 -0.808656,11.02205 8.110502,24.52265 22.900485,33.03555 14.32849,8.2473 29.90652,9.32436 39.15731,3.71847 -4.59847,-0.69455 -9.64201,-2.43501 -14.51107,-5.23765 -12.98462,-7.47367 -20.0099,-19.63548 -15.69022,-27.14035 4.30524,-7.47979 18.27336,-7.51226 31.22166,-0.11331 -3.90815,-5.05802 -9.29347,-9.77595 -15.82626,-13.53619 -0.25733,-0.14811 -0.51273,-0.28721 -0.77082,-0.43079 3.69043,-1.76831 7.16916,-3.89897 10.40713,-6.32593 0.78302,3.59615 2.14963,7.32417 4.14927,10.95137 2.64106,4.79069 5.99579,8.75081 9.61361,11.65429 -5.19553,-9.4945 -5.00892,-19.62712 0.47612,-22.651 5.50351,-3.03401 14.25018,2.24581 19.49935,11.7676 1.96854,3.57066 3.16277,7.24258 3.60514,10.58865 2.88809,-4.57339 3.48948,-11.37244 1.70054,-18.59244 3.0309,-1.91749 18.3792,-11.80205 19.95278,-16.43841 1.73898,-5.12328 -6.96083,-8.27585 -6.96083,-8.27585 l -1.72323,-3.15165 c 1.64078,-3.86777 -2.36959,-6.78268 -7.98109,-8.91075 3.03137,-2.31641 5.62363,-4.62962 6.09929,-6.03117 1.26479,-3.72959 -5.07893,-6.00848 -5.07893,-6.00848 l -1.24705,-2.29006 c 2.34523,-5.52798 -11.12902,-8.37502 -18.2523,-9.47758 -4.17222,-29.62534 -30.04869,-52.46683 -61.19611,-52.46683 -14.954861,0 -28.696442,5.25724 -39.406894,14.01232 2.000544,-5.68578 3.401119,-10.31653 3.401119,-10.31653 7.404785,1.62987 14.805843,-17.9575 14.805843,-17.9575 6.417764,1.41257 31.357732,-6.5527 31.357732,-6.5527 0,0 8.23277,8.52172 12.22102,2.15401 3.98907,-6.36628 12.22108,0.1133 12.22108,0.1133 -19.02154,-26.44028 -24.23809,-7.41427 -24.23809,-7.41427 l -5.28287,-4.26265 c -4.01457,-4.8704 -8.39058,-6.60617 -12.651976,-6.53002 z m 0.181321,2.81154 c 8.185145,-0.25647 11.178165,7.50515 11.178165,7.50497 -3.75554,2.40156 -28.636735,1.76855 -28.636735,1.76855 7.464485,-6.81717 13.171276,-9.13918 17.45857,-9.27352 z m -28.001897,11.47287 c 1.791191,-0.0558 3.060885,0.61218 3.060885,0.61218 l -9.069467,13.74023 c -2.189515,2.37581 -0.938789,5.06974 0.453527,6.89281 1.088085,0.8676 1.949414,1.67524 1.995253,2.10864 0,0 -1.028524,-0.84308 -1.995253,-2.10864 -2.023286,-1.61346 -4.852077,-3.42372 -4.852077,-3.42372 1.708543,-14.98083 6.987597,-17.71497 10.407132,-17.8215 z m -12.357156,23.03641 c -4.01074,3.55582 -1.224361,23.92044 -1.224361,23.92069 l -8.97872,4.08125 c -1.275768,-18.03274 10.203081,-28.00194 10.203081,-28.00194 z m 47.750768,7.70907 c 29.63166,0 53.50968,23.55665 53.50983,52.60286 0,0.41943 -0.0132,0.82992 -0.0224,1.24701 -14.54351,21.50193 -53.24948,8.04431 -75.730027,-7.75436 -21.333024,-14.99234 -29.320685,1.23391 -31.289631,6.6207 -4.6e-5,-0.0382 0,-0.0752 0,-0.1133 0,-29.04622 23.900754,-52.60286 53.532568,-52.60286 z m -6.484755,33.9651 28.999625,22.1295 c 6.4639,-10.96893 -28.999625,-22.1295 -28.999625,-22.1295 z m 48.680375,1.79119 c -5.02686,-0.16086 -6.96088,20.76911 -6.96088,20.76911 l 8.61605,-19.97553 c -0.58754,-0.51411 -1.13515,-0.7769 -1.65517,-0.79358 z m 19.00049,9.90844 c 10.16189,-0.0408 16.66516,7.14218 16.66516,7.14218 l -0.15873,3.58245 c -3.32057,0 -19.29525,-6.59806 -19.29525,-6.59806 l -0.47617,-3.8772 c 1.12662,-0.17479 2.21373,-0.2452 3.26499,-0.24937 z m -91.420141,11.33678 c 3.822747,-0.0949 9.228207,3.62778 9.228207,3.62778 47.497564,18.94231 72.646294,0.65753 72.646294,0.65753 -6.98505,17.63488 -75.437976,14.37127 -79.629865,13.71756 -4.191796,-0.65371 -7.672423,-9.81145 -5.577589,-15.69017 0.58941,-1.65337 1.837134,-2.27553 3.332953,-2.3127 z M 186.351,796.71958 c 0,0 7.28577,1.86197 3.17428,3.15164 l -3.17428,-3.15164 z m -18.77379,1.26969 c 6.16506,2.80208 14.82863,3.87721 14.82863,3.87721 l -2.1087,3.4464 c -4.97843,-1.32924 -9.97369,-2.15229 -13.37742,-2.63014 0.28813,-1.54258 0.49035,-3.11274 0.65749,-4.69347 z m -122.800434,4.21735 c 1.309874,0.006 2.654774,0.12262 4.058616,0.36277 l -0.589572,5.30562 c 0,0 -19.89664,9.06947 -24.034027,9.06947 l -0.204155,-4.9202 c 0,0 8.107339,-9.87355 20.769138,-9.81766 z m 123.934184,2.74348 c 13.96556,-0.0559 22.90033,9.81767 22.90033,9.81767 l -0.22669,4.9202 c -4.56421,0 -26.50556,-9.04678 -26.50556,-9.04678 l -0.65754,-5.32831 c 1.54834,-0.24016 3.04468,-0.35701 4.48946,-0.36278 z m -13.33213,5.60038 c -7.81029,10.04803 -57.069068,25.41564 -58.271309,26.0067 -1.202241,0.59104 -9.001404,-2.95943 -9.001404,-7.09686 0,-4.13745 4.194591,-7.09688 4.194591,-7.09688 10.212422,5.31955 63.078122,-11.81296 63.078122,-11.81296 z m -105.568495,6.16726 c 0.836493,1.81419 1.782069,3.56872 2.788863,5.28293 -11.131816,2.16081 -24.267399,6.14253 -21.290542,12.67461 l -0.204109,0.34008 -5.124201,-9.20551 c 0,0 17.572828,-2.43359 23.829989,-9.09211 z m 112.053095,1.20168 c 0.0499,0.0741 0.0835,0.15352 0.13614,0.22674 -0.0697,-0.027 -0.13446,-0.0644 -0.20411,-0.0906 0.0224,-0.0453 0.0453,-0.0904 0.0682,-0.13603 z m -140.803235,0.79357 -3.945265,4.33068 c -5.123339,-1.77319 3.945265,-4.33068 3.945265,-4.33068 z m 173.816085,2.76618 c 0,0 9.98124,2.55749 4.33073,4.33068 l -4.33073,-4.33068 z m -134.726681,1.40578 c 1.662508,0.007 3.387615,0.12813 5.169535,0.38546 l -0.748243,5.71373 c 0,0 -25.243769,9.70432 -30.496159,9.70432 l -0.249326,-5.28293 c 0,0 10.252337,-10.58065 26.324193,-10.52058 z m 87.905661,0.0224 c -3.44452,9.06152 5.12422,33.37559 5.12422,33.37559 0,0 -4.45399,-6.33476 -7.75436,-17.36798 -3.30043,-11.03326 2.63014,-16.00761 2.63014,-16.00761 z m 22.99104,1.15635 c 8.22853,3.23149 18.38828,4.48941 18.38828,4.48941 l -7.18747,14.23906 c -0.81504,-2.93531 -1.9904,-5.91401 -3.60518,-8.84274 -2.13751,-3.8776 -4.75863,-7.21291 -7.59563,-9.88573 z m -84.50464,13.98963 c 1.309816,0.006 2.654774,0.12267 4.058569,0.36278 l -0.589571,5.3283 c 0,0 -19.896594,9.04685 -24.033993,9.04685 l -0.181459,-4.92021 c 0,0 8.084493,-9.87355 20.746454,-9.81772 z m 88.10971,0.70292 c 0.188,-0.009 0.3712,-0.005 0.56683,0 0.72255,0.0132 1.4868,0.12895 2.29011,0.38546 3.23793,7.29408 2.15398,14.17099 2.15398,14.17099 0,0 -1.43071,-6.09597 -4.14928,-9.18282 -2.71865,-3.08669 -5.26023,-3.92253 -5.26023,-3.92253 -0.33922,0.25795 1.57894,-1.30299 4.39859,-1.4511 z m -144.589771,1.83657 -4.988168,4.6254 c -6.502908,-1.90083 4.988168,-4.6254 4.988168,-4.6254 z m 92.961901,8.61598 c 0.26815,-0.007 0.54496,-0.0104 0.8389,0 9.41227,0.34855 11.85834,4.89752 11.85834,4.89752 0,0 -7.67495,-1.75718 -11.85834,-0.36283 -4.18312,1.39447 -5.57759,3.83188 -5.57759,3.83188 0.33759,0.67543 -3.57326,-8.13212 4.73869,-8.36657 z m -33.670281,1.74587 c 4.954924,19.47554 46.004751,43.9415 46.004751,43.9415 0,0 -14.13729,-2.90242 -31.83375,-14.91923 C 85.827788,867.96015 89.353219,850.9547 89.353219,850.9547 z m -26.528244,3.62778 -3.945173,4.33068 c -5.123385,-1.7732 3.945173,-4.33068 3.945173,-4.33068 z"
       id="outline"
       inkscape:connector-curvature="0" />
  </g>
</svg>
